<?xml version="1.0" encoding="utf-8"?>
<!-- Generator: Adobe Illustrator 26.0.1, SVG Export Plug-In . SVG Version: 6.00 Build 0)  -->
<svg version="1.1" id="圖層_1" xmlns="http://www.w3.org/2000/svg" xmlns:xlink="http://www.w3.org/1999/xlink" x="0px" y="0px"
	 viewBox="0 0 312.4 65.6" style="enable-background:new 0 0 312.4 65.6;" xml:space="preserve">
<style type="text/css">
	.st0{fill:url(#SVGID_1_);}
	.st1{fill:url(#SVGID_00000124153926411992474400000012502586488252559783_);}
	.st2{fill:url(#SVGID_00000060735290833915479660000002464990630085619338_);}
	.st3{fill:url(#SVGID_00000029032746550981392110000003046450868060143533_);}
	.st4{fill:url(#SVGID_00000030452842840953955180000012984901402167508155_);}
	.st5{fill:url(#SVGID_00000161590907980076807660000004988769003182119847_);}
	.st6{enable-background:new    ;}
	.st7{fill:#3E3A39;}
	.st8{fill:url(#SVGID_00000121259178762628515230000007000824462757834152_);}
	.st9{fill:url(#SVGID_00000150094954623898011340000016284552002070138035_);}
	.st10{fill:url(#SVGID_00000068638801720072295350000016240143348974472084_);}
	.st11{fill:url(#SVGID_00000026126670531106779680000012878666251896407999_);}
	.st12{fill:url(#SVGID_00000067934000632385058400000000198300592583821466_);}
	.st13{fill:url(#SVGID_00000127747751118665239160000015723285748311291293_);}
	.st14{fill:url(#SVGID_00000172420552389408997590000001231819278438669209_);}
	.st15{fill:url(#SVGID_00000000914554360046922800000016664833921899293608_);}
	.st16{fill:url(#SVGID_00000085951350734453614660000004560023352865410961_);}
	.st17{fill:#3168B2;}
	.st18{fill:#2250A2;}
	.st19{fill:#35A1DC;}
</style>
<g>
	<g>
		<g>
			
				<linearGradient id="SVGID_1_" gradientUnits="userSpaceOnUse" x1="155.57" y1="285.5044" x2="305.2307" y2="285.5044" gradientTransform="matrix(1 0 0 1 0 -252.7244)">
				<stop  offset="0" style="stop-color:#3798CD"/>
				<stop  offset="1" style="stop-color:#224C97"/>
			</linearGradient>
			<path class="st0" d="M169.9,54.5c-0.4-1.1-0.6-1.8-0.6-5.3v-6.8c0-4-1.4-5.5-4.5-5.5h-2.4v17.7h-6.8V11h10.3
				c7.1,0,10.1,3.3,10.1,10v3.4c0,4.5-1.4,7.3-4.5,8.8v0.1c3.4,1.4,4.5,4.7,4.5,9.2v6.7c0,2.1,0.1,3.7,0.8,5.3
				C176.8,54.5,169.9,54.5,169.9,54.5z M162.4,17.2v13.4h2.7c2.6,0,4.1-1.1,4.1-4.6v-4.3c0-3.1-1.1-4.5-3.5-4.5
				C165.7,17.2,162.4,17.2,162.4,17.2z"/>
			
				<linearGradient id="SVGID_00000036956294206745281930000013593666239991755653_" gradientUnits="userSpaceOnUse" x1="155.5777" y1="285.4844" x2="305.2383" y2="285.4844" gradientTransform="matrix(1 0 0 1 0 -252.7244)">
				<stop  offset="0" style="stop-color:#3798CD"/>
				<stop  offset="1" style="stop-color:#224C97"/>
			</linearGradient>
			<path style="fill:url(#SVGID_00000036956294206745281930000013593666239991755653_);" d="M187.7,29.4h9.4v6.2h-9.4v12.7h11.8v6.2
				h-18.6V11h18.6v6.2h-11.8V29.4z"/>
			
				<linearGradient id="SVGID_00000155136296349204788730000009198935072021927297_" gradientUnits="userSpaceOnUse" x1="155.5777" y1="285.5094" x2="305.2383" y2="285.5094" gradientTransform="matrix(1 0 0 1 0 -252.7244)">
				<stop  offset="0" style="stop-color:#3798CD"/>
				<stop  offset="1" style="stop-color:#224C97"/>
			</linearGradient>
			<path style="fill:url(#SVGID_00000155136296349204788730000009198935072021927297_);" d="M213.2,10.5c6.6,0,10.1,4,10.1,10.9v1.4
				h-6.5V21c0-3.1-1.2-4.3-3.4-4.3c-2.2,0-3.4,1.2-3.4,4.3c0,3.2,1.4,5.5,5.8,9.5c5.7,5,7.5,8.6,7.5,13.6c0,7-3.5,10.9-10.2,10.9
				s-10.2-4-10.2-10.9v-2.7h6.5v3.1c0,3.1,1.4,4.2,3.5,4.2s3.5-1.1,3.5-4.2c0-3.2-1.4-5.5-5.8-9.5c-5.7-5-7.5-8.6-7.5-13.6
				C203.2,14.5,206.6,10.5,213.2,10.5z"/>
			
				<linearGradient id="SVGID_00000093856118924928626510000012894237455351194783_" gradientUnits="userSpaceOnUse" x1="155.5777" y1="285.7894" x2="305.2383" y2="285.7894" gradientTransform="matrix(1 0 0 1 0 -252.7244)">
				<stop  offset="0" style="stop-color:#3798CD"/>
				<stop  offset="1" style="stop-color:#224C97"/>
			</linearGradient>
			<path style="fill:url(#SVGID_00000093856118924928626510000012894237455351194783_);" d="M234.1,11v33.6c0,3.1,1.4,4.2,3.5,4.2
				c2.2,0,3.5-1.1,3.5-4.2V11h6.5v33.1c0,7-3.5,10.9-10.2,10.9s-10.2-4-10.2-10.9V11H234.1z"/>
			
				<linearGradient id="SVGID_00000033340552545544131760000005336690008775906720_" gradientUnits="userSpaceOnUse" x1="155.5777" y1="285.5044" x2="305.2383" y2="285.5044" gradientTransform="matrix(1 0 0 1 0 -252.7244)">
				<stop  offset="0" style="stop-color:#3798CD"/>
				<stop  offset="1" style="stop-color:#224C97"/>
			</linearGradient>
			<path style="fill:url(#SVGID_00000033340552545544131760000005336690008775906720_);" d="M267.1,41.9h0.1l4.6-30.9h9.5v43.5h-6.5
				V23.3h-0.1l-4.6,31.2h-6.5l-5-30.8h-0.1v30.8h-6V11h9.5L267.1,41.9z"/>
			
				<linearGradient id="SVGID_00000182518900740773276830000010787382587739892866_" gradientUnits="userSpaceOnUse" x1="155.5777" y1="285.4844" x2="305.2383" y2="285.4844" gradientTransform="matrix(1 0 0 1 0 -252.7244)">
				<stop  offset="0" style="stop-color:#3798CD"/>
				<stop  offset="1" style="stop-color:#224C97"/>
			</linearGradient>
			<path style="fill:url(#SVGID_00000182518900740773276830000010787382587739892866_);" d="M293.4,29.4h9.4v6.2h-9.4v12.7h11.8v6.2
				h-18.6V11h18.6v6.2h-11.8V29.4L293.4,29.4z"/>
		</g>
	</g>
</g>
<g>
	<g>
		<g>
			<g class="st6">
				<path class="st7" d="M100.9,54.5H94l-1.2-7.9h-8.4l-1.2,7.9H77l7-43.5h10L100.9,54.5z M85.3,40.7h6.6l-3.2-22h-0.1L85.3,40.7z"
					/>
				<path class="st7" d="M123.8,38.3v5.8c0,7-3.5,10.9-10.2,10.9c-6.7,0-10.2-4-10.2-10.9V21.4c0-7,3.5-10.9,10.2-10.9
					c6.7,0,10.2,4,10.2,10.9v4.2h-6.5V21c0-3.1-1.4-4.3-3.5-4.3s-3.5,1.2-3.5,4.3v23.5c0,3.1,1.4,4.2,3.5,4.2s3.5-1.1,3.5-4.2v-6.2
					H123.8z"/>
				<path class="st7" d="M134.8,29.3h9.4v6.2h-9.4v12.7h11.8v6.2H128V11h18.6v6.2h-11.8V29.3z"/>
			</g>
		</g>
	</g>
	<g>
		<g>
			<g>
				<g>
					
						<linearGradient id="SVGID_00000137126751389518955170000009749991068193636513_" gradientUnits="userSpaceOnUse" x1="76.97" y1="285.4644" x2="147.3254" y2="285.4644" gradientTransform="matrix(1 0 0 1 0 -252.7244)">
						<stop  offset="0" style="stop-color:#595757"/>
						<stop  offset="1" style="stop-color:#3E3A39"/>
					</linearGradient>
					<path style="fill:url(#SVGID_00000137126751389518955170000009749991068193636513_);" d="M100.9,54.5H94l-1.2-7.9h-8.4
						l-1.2,7.9H77l7-43.5h10L100.9,54.5z M85.3,40.7h6.6l-3.2-22h-0.1L85.3,40.7z"/>
					
						<linearGradient id="SVGID_00000021115041306005806470000005795893569453408640_" gradientUnits="userSpaceOnUse" x1="76.9752" y1="285.4644" x2="147.3306" y2="285.4644" gradientTransform="matrix(1 0 0 1 0 -252.7244)">
						<stop  offset="0" style="stop-color:#595757"/>
						<stop  offset="1" style="stop-color:#3E3A39"/>
					</linearGradient>
					<path style="fill:url(#SVGID_00000021115041306005806470000005795893569453408640_);" d="M124.2,38.3V44
						c0,7-3.5,10.9-10.2,10.9s-10.2-4-10.2-10.9V21.4c0-7,3.5-10.9,10.2-10.9s10.2,4,10.2,10.9v4.2h-6.5V21c0-3.1-1.4-4.3-3.5-4.3
						c-2.2,0-3.5,1.2-3.5,4.3v23.5c0,3.1,1.4,4.2,3.5,4.2s3.5-1.1,3.5-4.2v-6.2L124.2,38.3L124.2,38.3z"/>
					
						<linearGradient id="SVGID_00000027601390845155681920000011098266627323791771_" gradientUnits="userSpaceOnUse" x1="76.9752" y1="285.4544" x2="147.3306" y2="285.4544" gradientTransform="matrix(1 0 0 1 0 -252.7244)">
						<stop  offset="0" style="stop-color:#595757"/>
						<stop  offset="1" style="stop-color:#3E3A39"/>
					</linearGradient>
					<path style="fill:url(#SVGID_00000027601390845155681920000011098266627323791771_);" d="M135.5,29.3h9.4v6.2h-9.4v12.7h11.8
						v6.2h-18.6V11h18.6v6.2h-11.8V29.3z"/>
				</g>
			</g>
			<g>
				
					<linearGradient id="SVGID_00000015324435274020761030000005979731687728652691_" gradientUnits="userSpaceOnUse" x1="76.97" y1="285.4644" x2="147.3254" y2="285.4644" gradientTransform="matrix(1 0 0 1 0 -252.7244)">
					<stop  offset="0" style="stop-color:#595757"/>
					<stop  offset="1" style="stop-color:#3E3A39"/>
				</linearGradient>
				<path style="fill:url(#SVGID_00000015324435274020761030000005979731687728652691_);" d="M100.9,54.5H94l-1.2-7.9h-8.4l-1.2,7.9
					H77l7-43.5h10L100.9,54.5z M85.3,40.7h6.6l-3.2-22h-0.1L85.3,40.7z"/>
				
					<linearGradient id="SVGID_00000160886642573910761190000006149201828420176564_" gradientUnits="userSpaceOnUse" x1="76.9752" y1="285.4644" x2="147.3306" y2="285.4644" gradientTransform="matrix(1 0 0 1 0 -252.7244)">
					<stop  offset="0" style="stop-color:#595757"/>
					<stop  offset="1" style="stop-color:#3E3A39"/>
				</linearGradient>
				<path style="fill:url(#SVGID_00000160886642573910761190000006149201828420176564_);" d="M124.2,38.3V44c0,7-3.5,10.9-10.2,10.9
					s-10.2-4-10.2-10.9V21.4c0-7,3.5-10.9,10.2-10.9s10.2,4,10.2,10.9v4.2h-6.5V21c0-3.1-1.4-4.3-3.5-4.3c-2.2,0-3.5,1.2-3.5,4.3
					v23.5c0,3.1,1.4,4.2,3.5,4.2s3.5-1.1,3.5-4.2v-6.2L124.2,38.3L124.2,38.3z"/>
				
					<linearGradient id="SVGID_00000182493216228989459260000004085103075119859612_" gradientUnits="userSpaceOnUse" x1="76.9752" y1="285.4544" x2="147.3306" y2="285.4544" gradientTransform="matrix(1 0 0 1 0 -252.7244)">
					<stop  offset="0" style="stop-color:#595757"/>
					<stop  offset="1" style="stop-color:#3E3A39"/>
				</linearGradient>
				<path style="fill:url(#SVGID_00000182493216228989459260000004085103075119859612_);" d="M135.5,29.3h9.4v6.2h-9.4v12.7h11.8
					v6.2h-18.6V11h18.6v6.2h-11.8V29.3z"/>
			</g>
			<g>
				<g>
					
						<linearGradient id="SVGID_00000138563361046965279880000002755004083050665877_" gradientUnits="userSpaceOnUse" x1="76.97" y1="285.4644" x2="147.3254" y2="285.4644" gradientTransform="matrix(1 0 0 1 0 -252.7244)">
						<stop  offset="0" style="stop-color:#595757"/>
						<stop  offset="1" style="stop-color:#3E3A39"/>
					</linearGradient>
					<path style="fill:url(#SVGID_00000138563361046965279880000002755004083050665877_);" d="M100.9,54.5H94l-1.2-7.9h-8.4
						l-1.2,7.9H77l7-43.5h10L100.9,54.5z M85.3,40.7h6.6l-3.2-22h-0.1L85.3,40.7z"/>
					
						<linearGradient id="SVGID_00000087383783954601367470000006853022793374399407_" gradientUnits="userSpaceOnUse" x1="76.9752" y1="285.4644" x2="147.3306" y2="285.4644" gradientTransform="matrix(1 0 0 1 0 -252.7244)">
						<stop  offset="0" style="stop-color:#595757"/>
						<stop  offset="1" style="stop-color:#3E3A39"/>
					</linearGradient>
					<path style="fill:url(#SVGID_00000087383783954601367470000006853022793374399407_);" d="M124.2,38.3V44
						c0,7-3.5,10.9-10.2,10.9s-10.2-4-10.2-10.9V21.4c0-7,3.5-10.9,10.2-10.9s10.2,4,10.2,10.9v4.2h-6.5V21c0-3.1-1.4-4.3-3.5-4.3
						c-2.2,0-3.5,1.2-3.5,4.3v23.5c0,3.1,1.4,4.2,3.5,4.2s3.5-1.1,3.5-4.2v-6.2L124.2,38.3L124.2,38.3z"/>
					
						<linearGradient id="SVGID_00000127041747714894301130000014463049475901457589_" gradientUnits="userSpaceOnUse" x1="76.9752" y1="285.4544" x2="147.3306" y2="285.4544" gradientTransform="matrix(1 0 0 1 0 -252.7244)">
						<stop  offset="0" style="stop-color:#595757"/>
						<stop  offset="1" style="stop-color:#3E3A39"/>
					</linearGradient>
					<path style="fill:url(#SVGID_00000127041747714894301130000014463049475901457589_);" d="M135.5,29.3h9.4v6.2h-9.4v12.7h11.8
						v6.2h-18.6V11h18.6v6.2h-11.8V29.3z"/>
				</g>
			</g>
		</g>
	</g>
</g>
<g>
	<polygon class="st17" points="26.1,62.2 45.7,62.2 35.9,45.2 	"/>
	<polygon class="st18" points="0,62.2 20.8,62.2 35.9,35.9 35.9,0 	"/>
	<polygon class="st19" points="35.9,0 35.9,35.9 51.1,62.2 71.8,62.2 	"/>
</g>
</svg>
