<?xml version="1.0" encoding="utf-8"?>
<!-- Generator: Adobe Illustrator 26.0.1, SVG Export Plug-In . SVG Version: 6.00 Build 0)  -->
<svg version="1.1" baseProfile="basic" id="圖層_1"
	 xmlns="http://www.w3.org/2000/svg" xmlns:xlink="http://www.w3.org/1999/xlink" x="0px" y="0px" viewBox="0 0 133.8 154.2"
	 xml:space="preserve">
<style type="text/css">
	.st0{opacity:0.1;}
	.st1{fill:#2250A2;}
	.st2{fill:#4291E8;}
	.st3{fill:#FFFFFF;}
	.st4{fill:#F7B52C;}
</style>
<g>
	<g>
		<g>
			
				<image style="overflow:visible;" width="533" height="541" xlink:href="F42EEC50.png"  transform="matrix(0.24 0 0 0.24 4.1954 13.6915)">
			</image>
		</g>
		<g class="st0">
			<path class="st1" d="M127.6,31.7v77.4c0,2.5-2,4.6-4.6,4.6H10.4c-2.5,0-4.6-2-4.6-4.6V31.7c0-2.5,2-4.6,4.6-4.6H123
				C125.6,27.2,127.6,29.2,127.6,31.7z"/>
		</g>
		<g>
			<path class="st2" d="M95.7,135.6c-0.4,0-0.8-0.1-1.1-0.4l-3.4-3.4c-0.6-0.6-0.6-1.6,0-2.2l3.4-3.4c0.6-0.6,1.6-0.6,2.2,0l3.4,3.4
				c0.6,0.6,0.6,1.6,0,2.2l-3.4,3.4C96.4,135.4,96,135.6,95.7,135.6z M94.5,130.7l1.2,1.2l1.2-1.2l-1.2-1.2L94.5,130.7z"/>
		</g>
		<g>
			<path class="st2" d="M110.7,139.6c-0.4,0-0.8-0.1-1.1-0.4l-3.4-3.4c-0.6-0.6-0.6-1.6,0-2.2l3.4-3.4c0.3-0.3,0.7-0.4,1.1-0.4
				s0.8,0.2,1.1,0.4l3.4,3.4c0.3,0.3,0.4,0.7,0.4,1.1c0,0.4-0.2,0.8-0.4,1.1l-3.4,3.4C111.5,139.4,111.1,139.6,110.7,139.6
				L110.7,139.6z M109.5,134.7l1.2,1.2l1.2-1.2l-1.2-1.2L109.5,134.7z"/>
		</g>
		<g>
			<path class="st2" d="M52.1,27.9c-0.8,0-1.5-0.7-1.5-1.5c0-1-0.8-1.8-1.8-1.8c-0.8,0-1.5-0.7-1.5-1.5c0-0.8,0.7-1.5,1.5-1.5
				c1,0,1.8-0.8,1.8-1.8c0-0.8,0.7-1.5,1.5-1.5c0.8,0,1.5,0.7,1.5,1.5c0,1,0.8,1.8,1.8,1.8c0.8,0,1.5,0.7,1.5,1.5
				c0,0.8-0.7,1.5-1.5,1.5c-1,0-1.8,0.8-1.8,1.8C53.6,27.2,52.9,27.9,52.1,27.9z"/>
		</g>
		<g>
			<path class="st3" d="M84,142.2H49.5l4.5-17.8l2.4-9.5h20.7l2.4,9.5L84,142.2z"/>
		</g>
		<g>
			<path class="st3" d="M127.6,38.1v77.4c0,2.5-2,4.6-4.6,4.6H10.4c-2.5,0-4.6-2-4.6-4.6V38.1c0-2.5,2-4.6,4.6-4.6H123
				C125.6,33.6,127.6,35.6,127.6,38.1z"/>
		</g>
		<g>
			<path class="st3" d="M26.5,33.6H107v71.2H26.5L26.5,33.6z"/>
		</g>
		<g>
			<path class="st2" d="M35,110.5H16c-0.5,0-0.9-0.4-0.9-0.9V96c0-0.5,0.4-0.9,0.9-0.9H35c0.5,0,0.9,0.4,0.9,0.9v13.6
				C36,110.1,35.6,110.5,35,110.5L35,110.5z"/>
		</g>
		<g>
			<path class="st2" d="M31.9,110.5h-7.3v-8.9c0-0.5,0.4-0.9,0.9-0.9H31c0.5,0,0.9,0.4,0.9,0.9V110.5z"/>
		</g>
		<g>
			<path class="st2" d="M62.5,110.5H43.5c-0.5,0-0.9-0.4-0.9-0.9V96c0-0.5,0.4-0.9,0.9-0.9h19.1c0.5,0,0.9,0.4,0.9,0.9v13.6
				C63.5,110.1,63,110.5,62.5,110.5L62.5,110.5z"/>
		</g>
		<g>
			<path class="st2" d="M59.4,110.5h-7.3v-8.9c0-0.5,0.4-0.9,0.9-0.9h5.5c0.5,0,0.9,0.4,0.9,0.9V110.5z"/>
		</g>
		<g>
			<path class="st2" d="M90,110.5H71c-0.5,0-0.9-0.4-0.9-0.9V96c0-0.5,0.4-0.9,0.9-0.9H90c0.5,0,0.9,0.4,0.9,0.9v13.6
				C90.9,110.1,90.5,110.5,90,110.5z"/>
		</g>
		<g>
			<path class="st2" d="M86.9,110.5h-7.3v-8.9c0-0.5,0.4-0.9,0.9-0.9h5.5c0.5,0,0.9,0.4,0.9,0.9V110.5z"/>
		</g>
		<g>
			<path class="st4" d="M117.5,110.5H98.4c-0.5,0-0.9-0.4-0.9-0.9V96c0-0.5,0.4-0.9,0.9-0.9h19.1c0.5,0,0.9,0.4,0.9,0.9v13.6
				C118.4,110.1,118,110.5,117.5,110.5z"/>
		</g>
		<g>
			<path class="st4" d="M114.3,110.5H107v-8.9c0-0.5,0.4-0.9,0.9-0.9h5.5c0.5,0,0.9,0.4,0.9,0.9V110.5z"/>
		</g>
		<g>
			<path class="st3" d="M127.6,48.2V38.1c0-2.5-2-4.6-4.6-4.6H10.4c-2.5,0-4.6,2-4.6,4.6v10.1H127.6z"/>
		</g>
		<g>
			<path class="st3" d="M5.9,104.7v10.8c0,2.5,2,4.6,4.6,4.6H123c2.5,0,4.6-2,4.6-4.6v-10.8L5.9,104.7z"/>
		</g>
		<g>
			<g>
				<path class="st1" d="M17.5,42.4c0.8,0,1.5-0.7,1.5-1.5v0c0-0.8-0.7-1.5-1.5-1.5S16,40,16,40.9v0C16,41.7,16.6,42.4,17.5,42.4z"
					/>
			</g>
			<g>
				<path class="st1" d="M23.4,42.4c0.8,0,1.5-0.7,1.5-1.5v0c0-0.8-0.7-1.5-1.5-1.5s-1.5,0.7-1.5,1.5v0
					C21.8,41.7,22.5,42.4,23.4,42.4z"/>
			</g>
			<g>
				<path class="st1" d="M29.2,42.4c0.8,0,1.5-0.7,1.5-1.5v0c0-0.8-0.7-1.5-1.5-1.5c-0.8,0-1.5,0.7-1.5,1.5v0
					C27.7,41.7,28.4,42.4,29.2,42.4z"/>
			</g>
			<g>
				<path class="st1" d="M123,32H10.4c-3.4,0-6.1,2.7-6.1,6.1v77.4c0,3.4,2.7,6.1,6.1,6.1h42.7l-4.8,19.1h-4.7
					c-0.8,0-1.5,0.7-1.5,1.5c0,0.8,0.7,1.5,1.5,1.5h46.2c0.8,0,1.5-0.7,1.5-1.5c0-0.8-0.7-1.5-1.5-1.5h-4.7l-3.4-13.3
					c-0.2-0.8-1-1.3-1.8-1.1c-0.8,0.2-1.3,1-1.1,1.8l3.2,12.5H51.4l4.8-19.1H123c3.4,0,6.1-2.7,6.1-6.1V38.1
					C129.1,34.8,126.4,32,123,32L123,32z M10.4,35.1H123c1.7,0,3,1.4,3,3v8.6H14.3c-0.8,0-1.5,0.7-1.5,1.5c0,0.8,0.7,1.5,1.5,1.5
					h111.8v53.5H7.4V38.1C7.4,36.4,8.8,35.1,10.4,35.1z M123,118.5H10.4c-1.7,0-3-1.4-3-3v-9.2h118.7v9.2
					C126.1,117.2,124.7,118.5,123,118.5L123,118.5z"/>
			</g>
		</g>
		<g>
			<g>
				<path class="st2" d="M35,70.7H16c-0.5,0-0.9-0.4-0.9-0.9V56.2c0-0.5,0.4-0.9,0.9-0.9H35c0.5,0,0.9,0.4,0.9,0.9v13.6
					C36,70.3,35.6,70.7,35,70.7L35,70.7z"/>
			</g>
			<g>
				<path class="st2" d="M31.9,70.7h-7.3v-8.9c0-0.5,0.4-0.9,0.9-0.9H31c0.5,0,0.9,0.4,0.9,0.9V70.7z"/>
			</g>
			<g>
				<path class="st2" d="M62.5,70.7H43.5c-0.5,0-0.9-0.4-0.9-0.9V56.2c0-0.5,0.4-0.9,0.9-0.9h19.1c0.5,0,0.9,0.4,0.9,0.9v13.6
					C63.5,70.3,63,70.7,62.5,70.7L62.5,70.7z"/>
			</g>
			<g>
				<path class="st2" d="M59.4,70.7h-7.3v-8.9c0-0.5,0.4-0.9,0.9-0.9h5.5c0.5,0,0.9,0.4,0.9,0.9V70.7z"/>
			</g>
			<g>
				<path class="st4" d="M90,70.7H71c-0.5,0-0.9-0.4-0.9-0.9V56.2c0-0.5,0.4-0.9,0.9-0.9H90c0.5,0,0.9,0.4,0.9,0.9v13.6
					C90.9,70.3,90.5,70.7,90,70.7z"/>
			</g>
			<g>
				<path class="st4" d="M86.9,70.7h-7.3v-8.9c0-0.5,0.4-0.9,0.9-0.9h5.5c0.5,0,0.9,0.4,0.9,0.9V70.7z"/>
			</g>
			<g>
				<path class="st2" d="M117.5,70.7H98.4c-0.5,0-0.9-0.4-0.9-0.9V56.2c0-0.5,0.4-0.9,0.9-0.9h19.1c0.5,0,0.9,0.4,0.9,0.9v13.6
					C118.4,70.3,118,70.7,117.5,70.7z"/>
			</g>
			<g>
				<path class="st2" d="M114.3,70.7H107v-8.9c0-0.5,0.4-0.9,0.9-0.9h5.5c0.5,0,0.9,0.4,0.9,0.9V70.7z"/>
			</g>
			<g>
				<path class="st4" d="M35,90.6H16c-0.5,0-0.9-0.4-0.9-0.9V76.1c0-0.5,0.4-0.9,0.9-0.9H35c0.5,0,0.9,0.4,0.9,0.9v13.6
					C36,90.2,35.6,90.6,35,90.6L35,90.6z"/>
			</g>
			<g>
				<path class="st4" d="M31.9,90.6h-7.3v-8.9c0-0.5,0.4-0.9,0.9-0.9H31c0.5,0,0.9,0.4,0.9,0.9V90.6z"/>
			</g>
			<g>
				<path class="st2" d="M62.5,90.6H43.5c-0.5,0-0.9-0.4-0.9-0.9V76.1c0-0.5,0.4-0.9,0.9-0.9h19.1c0.5,0,0.9,0.4,0.9,0.9v13.6
					C63.5,90.2,63,90.6,62.5,90.6L62.5,90.6z"/>
			</g>
			<g>
				<path class="st2" d="M59.4,90.6h-7.3v-8.9c0-0.5,0.4-0.9,0.9-0.9h5.5c0.5,0,0.9,0.4,0.9,0.9V90.6z"/>
			</g>
			<g>
				<path class="st2" d="M90,90.6H71c-0.5,0-0.9-0.4-0.9-0.9V76.1c0-0.5,0.4-0.9,0.9-0.9H90c0.5,0,0.9,0.4,0.9,0.9v13.6
					C90.9,90.2,90.5,90.6,90,90.6z"/>
			</g>
			<g>
				<path class="st2" d="M86.9,90.6h-7.3v-8.9c0-0.5,0.4-0.9,0.9-0.9h5.5c0.5,0,0.9,0.4,0.9,0.9V90.6z"/>
			</g>
			<g>
				<path class="st2" d="M117.5,90.6H98.4c-0.5,0-0.9-0.4-0.9-0.9V76.1c0-0.5,0.4-0.9,0.9-0.9h19.1c0.5,0,0.9,0.4,0.9,0.9v13.6
					C118.4,90.2,118,90.6,117.5,90.6z"/>
			</g>
			<g>
				<path class="st2" d="M114.3,90.6H107v-8.9c0-0.5,0.4-0.9,0.9-0.9h5.5c0.5,0,0.9,0.4,0.9,0.9V90.6z"/>
			</g>
			<g>
				<path class="st2" d="M35.2,23.2c-0.8,0-1.5-0.7-1.5-1.5c0-1-0.8-1.8-1.8-1.8c-0.8,0-1.5-0.7-1.5-1.5s0.7-1.5,1.5-1.5
					c1,0,1.8-0.8,1.8-1.8c0-0.8,0.7-1.5,1.5-1.5s1.5,0.7,1.5,1.5c0,1,0.8,1.8,1.8,1.8c0.8,0,1.5,0.7,1.5,1.5s-0.7,1.5-1.5,1.5
					c-1,0-1.8,0.8-1.8,1.8C36.8,22.5,36.1,23.2,35.2,23.2z"/>
			</g>
		</g>
	</g>
</g>
</svg>
