<?xml version="1.0" encoding="utf-8"?>
<!-- Generator: Adobe Illustrator 26.0.1, SVG Export Plug-In . SVG Version: 6.00 Build 0)  -->
<svg version="1.1" baseProfile="basic" id="圖層_1"
	 xmlns="http://www.w3.org/2000/svg" xmlns:xlink="http://www.w3.org/1999/xlink" x="0px" y="0px" viewBox="0 0 133.8 154.2"
	 xml:space="preserve">
<style type="text/css">
	.st0{opacity:0.1;}
	.st1{fill:#2250A2;}
	.st2{fill:#FFFFFF;}
	.st3{fill:#4291E8;}
	.st4{fill:#F7B52C;}
</style>
<g>
	<g>
		
			<image style="overflow:visible;" width="559" height="644" xlink:href="3A20980B.png"  transform="matrix(0.24 0 0 0.24 -0.1768 -0.2285)">
		</image>
	</g>
	<g class="st0">
		<path class="st1" d="M126.8,23.1h-17.7v-4.5c0-2.5-2-4.5-4.5-4.5H29.2c-2.5,0-4.5,2-4.5,4.5v4.5H7c-2.5,0-4.5,2-4.5,4.5v94.7
			c0,2.5,2,4.5,4.5,4.5h17.7v4.5c0,2.5,2,4.5,4.5,4.5h75.3c2.5,0,4.5-2,4.5-4.5v-4.5h17.7c2.5,0,4.5-2,4.5-4.5V27.6
			C131.3,25.1,129.3,23.1,126.8,23.1L126.8,23.1z"/>
	</g>
	<g>
		<path class="st2" d="M126.8,29.4H98.2v103.7h28.6c2.5,0,4.5-2,4.5-4.5V33.9C131.3,31.5,129.3,29.4,126.8,29.4z"/>
	</g>
	<g>
		<path class="st3" d="M119.9,98.2H98.2v35h21.7c0.5,0,0.9-0.4,0.9-0.9V99.1C120.8,98.6,120.4,98.2,119.9,98.2L119.9,98.2z"/>
	</g>
	<g>
		<path class="st4" d="M119.9,55.3H98.2v35h21.7c0.5,0,0.9-0.4,0.9-0.9V56.2C120.8,55.7,120.4,55.3,119.9,55.3z"/>
	</g>
	<g>
		<path class="st2" d="M126.8,29.4H98.2v14.5h33.1v-10C131.3,31.4,129.3,29.4,126.8,29.4z"/>
	</g>
	<g>
		<path class="st2" d="M34.6,29.4H7c-2.5,0-4.5,2-4.5,4.5v94.7c0,2.5,2,4.5,4.5,4.5h27.7L34.6,29.4L34.6,29.4z"/>
	</g>
	<g>
		<path class="st4" d="M34.6,120.4V80.6H11.4c-0.5,0-0.9,0.4-0.9,0.9v38c0,0.5,0.4,0.9,0.9,0.9L34.6,120.4z"/>
	</g>
	<g>
		<path class="st3" d="M34.6,72.8V60.2H11.4c-0.5,0-0.9,0.4-0.9,0.9v10.8c0,0.5,0.4,0.9,0.9,0.9H34.6z"/>
	</g>
	<g>
		<path class="st2" d="M34.6,29.4H7c-2.5,0-4.5,2-4.5,4.5v10h32.2V29.4z"/>
	</g>
	<g>
		<path class="st2" d="M109.1,24.9v112.8c0,2.5-2,4.5-4.5,4.5H29.2c-2.5,0-4.5-2-4.5-4.5V24.9c0-2.5,2-4.5,4.5-4.5h75.3
			C107,20.4,109.1,22.4,109.1,24.9z"/>
	</g>
	<g>
		<path class="st4" d="M109.1,44v31.7c-3.5,1.5-7.3,2.3-11.3,2.3c-16.3,0-29.6-13.3-29.6-29.6c0-1.5,0.1-3,0.3-4.4L109.1,44z"/>
	</g>
	<g>
		<rect x="24.7" y="82.5" class="st1" width="84.4" height="2.9"/>
	</g>
	<g>
		<rect x="24.7" y="42.4" class="st1" width="84.4" height="2.8"/>
	</g>
	<g>
		<path class="st2" d="M109.1,34.9v-10c0-2.5-2-4.5-4.5-4.5H29.2c-2.5,0-4.5,2-4.5,4.5v10H109.1z"/>
	</g>
	<g>
		<g>
			<g>
				<path class="st1" d="M126.8,27.9h-16.2v-3c0-3.3-2.7-6-6-6H29.2c-3.3,0-6,2.7-6,6v3H7c-3.3,0-6,2.7-6,6v94.7c0,3.3,2.7,6,6,6
					h9.4c0.8,0,1.5-0.7,1.5-1.5c0-0.8-0.7-1.5-1.5-1.5H7c-1.7,0-3-1.4-3-3V45.4h19.2v92.2c0,3.3,2.7,6,6,6h75.3c3.3,0,6-2.7,6-6v-3
					h16.2c3.3,0,6-2.7,6-6V33.9C132.8,30.6,130.1,27.9,126.8,27.9L126.8,27.9z M126.8,30.9c1.7,0,3,1.4,3,3v8.5h-19.2V30.9
					L126.8,30.9z M29.2,21.9h75.3c1.7,0,3,1.4,3,3v8.5H26.2v-8.5C26.2,23.2,27.6,21.9,29.2,21.9L29.2,21.9z M3.9,42.4v-8.5
					c0-1.7,1.4-3,3-3h16.2v11.5H3.9z M126.8,131.7h-16.2V52.2c0-0.8-0.7-1.5-1.5-1.5c-0.8,0-1.5,0.7-1.5,1.5v85.4c0,1.7-1.4,3-3,3
					H29.2c-1.7,0-3-1.4-3-3V36.4h81.4v7.5c0,0.8,0.7,1.5,1.5,1.5h20.7v83.2C129.8,130.3,128.5,131.7,126.8,131.7L126.8,131.7z"/>
			</g>
			<g>
				<path class="st1" d="M13.9,35.2c-0.8,0-1.5,0.7-1.5,1.5v0c0,0.8,0.7,1.5,1.5,1.5s1.5-0.7,1.5-1.5v0
					C15.4,35.8,14.7,35.2,13.9,35.2z"/>
			</g>
			<g>
				<path class="st1" d="M19.7,35.2c-0.8,0-1.5,0.7-1.5,1.5v0c0,0.8,0.7,1.5,1.5,1.5c0.8,0,1.5-0.7,1.5-1.5v0
					C21.2,35.8,20.6,35.2,19.7,35.2z"/>
			</g>
			<g>
				<path class="st1" d="M36.2,29.2c0.8,0,1.5-0.7,1.5-1.5v0c0-0.8-0.7-1.5-1.5-1.5c-0.8,0-1.5,0.7-1.5,1.5v0
					C34.7,28.5,35.3,29.2,36.2,29.2z"/>
			</g>
			<g>
				<path class="st1" d="M42,29.2c0.8,0,1.5-0.7,1.5-1.5v0c0-0.8-0.7-1.5-1.5-1.5c-0.8,0-1.5,0.7-1.5,1.5v0
					C40.5,28.5,41.2,29.2,42,29.2z"/>
			</g>
			<g>
				<path class="st1" d="M47.8,29.2c0.8,0,1.5-0.7,1.5-1.5v0c0-0.8-0.7-1.5-1.5-1.5c-0.8,0-1.5,0.7-1.5,1.5v0
					C46.3,28.5,47,29.2,47.8,29.2z"/>
			</g>
			<g>
				<path class="st1" d="M98.8,59.7c-0.6-0.6-1.5-0.6-2.1,0c-0.6,0.6-0.6,1.5,0,2.1l0.7,0.7l-0.7,0.7c-0.6,0.6-0.6,1.5,0,2.1
					c0.3,0.3,0.7,0.4,1.1,0.4c0.4,0,0.8-0.1,1.1-0.4l1.8-1.8c0.6-0.6,0.6-1.5,0-2.1L98.8,59.7z"/>
			</g>
			<g>
				<path class="st1" d="M37.1,59.7c-0.6-0.6-1.5-0.6-2.1,0l-1.8,1.8c-0.6,0.6-0.6,1.5,0,2.1l1.8,1.8c0.3,0.3,0.7,0.4,1.1,0.4
					c0.4,0,0.8-0.1,1.1-0.4c0.6-0.6,0.6-1.5,0-2.1l-0.7-0.7l0.7-0.7C37.7,61.3,37.7,60.3,37.1,59.7L37.1,59.7z"/>
			</g>
		</g>
		<g>
			<circle class="st1" cx="61.8" cy="79.1" r="1.7"/>
		</g>
		<g>
			<circle class="st1" cx="66.9" cy="79.1" r="1.7"/>
		</g>
		<g>
			<circle class="st1" cx="72" cy="79.1" r="1.7"/>
		</g>
	</g>
	<g>
		<path class="st3" d="M49.8,108.1H31c-0.5,0-0.9-0.4-0.9-0.9V93.8c0-0.5,0.4-0.9,0.9-0.9h18.9c0.5,0,0.9,0.4,0.9,0.9v13.5
			C50.7,107.7,50.3,108.1,49.8,108.1z"/>
	</g>
	<g>
		<path class="st3" d="M46.7,108.1h-7.2v-8.9c0-0.5,0.4-0.9,0.9-0.9h5.4c0.5,0,0.9,0.4,0.9,0.9V108.1z"/>
	</g>
	<g>
		<path class="st1" d="M45.6,115.8H35.2c-0.8,0-1.5-0.7-1.5-1.5c0-0.8,0.7-1.5,1.5-1.5h10.5c0.8,0,1.5,0.7,1.5,1.5
			C47.1,115.2,46.5,115.8,45.6,115.8z"/>
	</g>
	<g>
		<path class="st1" d="M50,126.7H31.6c-0.8,0-1.5-0.7-1.5-1.5c0-0.8,0.7-1.5,1.5-1.5H50c0.8,0,1.5,0.7,1.5,1.5
			C51.5,126,50.8,126.7,50,126.7L50,126.7z"/>
	</g>
	<g>
		<path class="st1" d="M50,132.5H31.6c-0.8,0-1.5-0.7-1.5-1.5s0.7-1.5,1.5-1.5H50c0.8,0,1.5,0.7,1.5,1.5S50.8,132.5,50,132.5
			L50,132.5z"/>
	</g>
	<g>
		<path class="st3" d="M75.9,108.1H57.1c-0.5,0-0.9-0.4-0.9-0.9V93.8c0-0.5,0.4-0.9,0.9-0.9h18.9c0.5,0,0.9,0.4,0.9,0.9v13.5
			C76.8,107.7,76.4,108.1,75.9,108.1z"/>
	</g>
	<g>
		<path class="st3" d="M72.8,108.1h-7.2v-8.9c0-0.5,0.4-0.9,0.9-0.9h5.4c0.5,0,0.9,0.4,0.9,0.9V108.1z"/>
	</g>
	<g>
		<path class="st1" d="M71.7,115.8H61.3c-0.8,0-1.5-0.7-1.5-1.5c0-0.8,0.7-1.5,1.5-1.5h10.5c0.8,0,1.5,0.7,1.5,1.5
			C73.2,115.2,72.6,115.8,71.7,115.8z"/>
	</g>
	<g>
		<path class="st1" d="M76.1,126.7H57.7c-0.8,0-1.5-0.7-1.5-1.5c0-0.8,0.7-1.5,1.5-1.5h18.4c0.8,0,1.5,0.7,1.5,1.5
			C77.6,126,76.9,126.7,76.1,126.7z"/>
	</g>
	<g>
		<path class="st1" d="M76.1,132.5H57.7c-0.8,0-1.5-0.7-1.5-1.5s0.7-1.5,1.5-1.5h18.4c0.8,0,1.5,0.7,1.5,1.5S76.9,132.5,76.1,132.5z
			"/>
	</g>
	<g>
		<path class="st3" d="M102,108.1H83.2c-0.5,0-0.9-0.4-0.9-0.9V93.8c0-0.5,0.4-0.9,0.9-0.9H102c0.5,0,0.9,0.4,0.9,0.9v13.5
			C103,107.7,102.5,108.1,102,108.1z"/>
	</g>
	<g>
		<path class="st3" d="M98.9,108.1h-7.2v-8.9c0-0.5,0.4-0.9,0.9-0.9H98c0.5,0,0.9,0.4,0.9,0.9L98.9,108.1L98.9,108.1z"/>
	</g>
	<g>
		<path class="st1" d="M97.8,115.8H87.4c-0.8,0-1.5-0.7-1.5-1.5c0-0.8,0.7-1.5,1.5-1.5h10.5c0.8,0,1.5,0.7,1.5,1.5
			C99.3,115.2,98.7,115.8,97.8,115.8z"/>
	</g>
	<g>
		<path class="st1" d="M102.2,126.7H83.8c-0.8,0-1.5-0.7-1.5-1.5c0-0.8,0.7-1.5,1.5-1.5h18.4c0.8,0,1.5,0.7,1.5,1.5
			C103.7,126,103,126.7,102.2,126.7z"/>
	</g>
	<g>
		<path class="st1" d="M102.2,132.5H83.8c-0.8,0-1.5-0.7-1.5-1.5s0.7-1.5,1.5-1.5h18.4c0.8,0,1.5,0.7,1.5,1.5S103,132.5,102.2,132.5
			z"/>
	</g>
	<g>
		<path class="st3" d="M117.1,23.7c-0.4,0-0.8-0.2-1.1-0.4l-3.3-3.3c-0.3-0.3-0.4-0.7-0.4-1.1c0-0.4,0.2-0.8,0.4-1.1l3.3-3.3
			c0.6-0.6,1.5-0.6,2.1,0l3.3,3.3c0.3,0.3,0.4,0.7,0.4,1.1c0,0.4-0.2,0.8-0.4,1.1l-3.3,3.3C117.9,23.5,117.5,23.7,117.1,23.7z
			 M115.9,18.9l1.2,1.2l1.2-1.2l-1.2-1.2L115.9,18.9z"/>
	</g>
	<g>
		<path class="st3" d="M15.6,148.3c-0.4,0-0.8-0.2-1.1-0.4l-3.3-3.3c-0.3-0.3-0.4-0.7-0.4-1.1s0.2-0.8,0.4-1.1l3.3-3.3
			c0.6-0.6,1.5-0.6,2.1,0l3.3,3.3c0.3,0.3,0.4,0.7,0.4,1.1s-0.2,0.8-0.4,1.1l-3.3,3.3C16.4,148.1,16,148.3,15.6,148.3z M14.4,143.5
			l1.2,1.2l1.2-1.2l-1.2-1.2L14.4,143.5z"/>
	</g>
	<g>
		<path class="st3" d="M103,15.2c-0.4,0-0.8-0.1-1.1-0.4l-3.3-3.3c-0.3-0.3-0.4-0.7-0.4-1.1s0.2-0.8,0.4-1.1l3.3-3.3
			c0.6-0.6,1.5-0.6,2.1,0l3.3,3.3c0.6,0.6,0.6,1.5,0,2.1l-3.3,3.3C103.7,15.1,103.3,15.2,103,15.2z M101.8,10.4l1.2,1.2l1.2-1.2
			L103,9.2L101.8,10.4z"/>
	</g>
	<g>
		<path class="st3" d="M122.9,148.6c-0.8,0-1.5-0.7-1.5-1.5c0-1-0.8-1.8-1.8-1.8c-0.8,0-1.5-0.7-1.5-1.5c0-0.8,0.7-1.5,1.5-1.5
			c1,0,1.8-0.8,1.8-1.8c0-0.8,0.7-1.5,1.5-1.5s1.5,0.7,1.5,1.5c0,1,0.8,1.8,1.8,1.8c0.8,0,1.5,0.7,1.5,1.5c0,0.8-0.7,1.5-1.5,1.5
			c-1,0-1.8,0.8-1.8,1.8C124.4,147.9,123.7,148.6,122.9,148.6z"/>
	</g>
</g>
</svg>
