<?xml version="1.0" encoding="utf-8"?>
<!-- Generator: Adobe Illustrator 25.0.1, SVG Export Plug-In . SVG Version: 6.00 Build 0)  -->
<svg version="1.1" baseProfile="basic" id="Layer_1"
	 xmlns="http://www.w3.org/2000/svg" xmlns:xlink="http://www.w3.org/1999/xlink" x="0px" y="0px" viewBox="0 0 112.4 99.1"
	 xml:space="preserve">
<style type="text/css">
	.st0{fill:#FFFFFF;}
</style>
<g>
	<path class="st0" d="M76.3,82.2c-1.7,0-3.3-0.1-4.8-0.3H36.4c8.1,10.2,21.1,17.1,39.9,17.1c13.7,0,26.3-4.5,36.1-14.1l-12.2-12.4
		C93.9,78.9,84.6,82.2,76.3,82.2z"/>
	<path class="st0" d="M17.8,81.8c2.5,0,4.7-1.6,5.5-3.9h29.4h5.5c-8.4-4.8-12.8-13.1-14.2-21.8H26.3c0.7,6.2,2.3,12.3,5,17.8h-7.9
		c-0.8-2.3-3-3.9-5.5-3.9c-3.3,0-5.9,2.6-5.9,5.9C11.9,79.1,14.5,81.8,17.8,81.8z"/>
	<path class="st0" d="M43.6,52c0-0.6-0.1-1.3-0.1-1.9c-0.1-6.9,1.8-14.1,5.8-19.9H29.5c-2.2,5.7-3.3,11.7-3.5,17.8H11.5
		c-0.8-2.3-3-3.9-5.5-3.9C2.6,44,0,46.7,0,50c0,3.3,2.6,5.9,5.9,5.9c2.5,0,4.7-1.6,5.5-3.9h28.3H43.6z"/>
	<path class="st0" d="M19.7,29.9c2.5,0,4.7-1.6,5.5-3.9h27.5h0c5.3-5.4,13.1-9,23.6-9c8.3,0,16.7,2.9,22.9,9l11.9-11.5
		C101.4,4.9,89.2,0,76.3,0C55.5,0,41.4,9.2,33.5,22h-8.3c-0.8-2.3-3-3.9-5.5-3.9c-3.3,0-5.9,2.6-5.9,5.9
		C13.8,27.3,16.4,29.9,19.7,29.9z"/>
</g>
</svg>
