<?xml version="1.0" encoding="utf-8"?>
<!-- Generator: Adobe Illustrator 26.0.1, SVG Export Plug-In . SVG Version: 6.00 Build 0)  -->
<svg version="1.1" id="圖層_1" xmlns="http://www.w3.org/2000/svg" xmlns:xlink="http://www.w3.org/1999/xlink" x="0px" y="0px"
	 viewBox="0 0 312.38 65.62" style="enable-background:new 0 0 312.38 65.62;" xml:space="preserve">
<style type="text/css">
	.st0{fill:url(#SVGID_1_);}
	.st1{fill:url(#SVGID_00000123413021763490755860000012761814953960817307_);}
	.st2{fill:url(#SVGID_00000172437781338338844340000002980091863192099252_);}
	.st3{fill:url(#SVGID_00000109721898070487386270000017865250484139894405_);}
	.st4{fill:url(#SVGID_00000155114047302001052300000004059626136240589490_);}
	.st5{fill:url(#SVGID_00000105418134415921978460000011546077822518506424_);}
	.st6{fill:#3E3A39;}
	.st7{font-family:'BebasNeue';}
	.st8{font-size:62.1532px;}
	.st9{fill:url(#SVGID_00000027589053296641400030000014576531883958383512_);}
	.st10{fill:url(#SVGID_00000168092033154993557460000017603649825337743749_);}
	.st11{fill:url(#SVGID_00000051358308790101790190000016568545833638525619_);}
	.st12{fill:url(#SVGID_00000160153418163874780620000015464121397426617487_);}
	.st13{fill:url(#SVGID_00000121987977033649244850000016110240690728137893_);}
	.st14{fill:url(#SVGID_00000091711242200252922390000018237643979470438835_);}
	.st15{fill:url(#SVGID_00000003785577197764851190000004994847674480604065_);}
	.st16{fill:url(#SVGID_00000114036146762096162300000011590022557870548913_);}
	.st17{fill:url(#SVGID_00000166658470612060600050000004585647766398574243_);}
	.st18{fill:#3168B2;}
	.st19{fill:#2250A2;}
	.st20{fill:#35A1DC;}
</style>
<g>
	<g>
		<g>
			
				<linearGradient id="SVGID_1_" gradientUnits="userSpaceOnUse" x1="155.5747" y1="34.5006" x2="305.2354" y2="34.5006" gradientTransform="matrix(1 0 0 -1 0 67.2756)">
				<stop  offset="0" style="stop-color:#3798CD"/>
				<stop  offset="1" style="stop-color:#224C97"/>
			</linearGradient>
			<path class="st0" d="M169.87,54.53c-0.37-1.12-0.62-1.8-0.62-5.34v-6.84c0-4.04-1.37-5.53-4.48-5.53h-2.36v17.71h-6.84v-43.5
				h10.32c7.08,0,10.13,3.29,10.13,10.01v3.42c0,4.47-1.43,7.33-4.47,8.76v0.12c3.42,1.43,4.54,4.66,4.54,9.2v6.71
				c0,2.11,0.06,3.67,0.75,5.28C176.84,54.52,169.87,54.52,169.87,54.53z M162.41,17.24V30.6h2.67c2.55,0,4.1-1.12,4.1-4.6v-4.29
				c0-3.11-1.06-4.47-3.48-4.47C165.7,17.24,162.41,17.24,162.41,17.24z"/>
			
				<linearGradient id="SVGID_00000157276068514922931750000003527444130635352981_" gradientUnits="userSpaceOnUse" x1="155.5777" y1="34.5106" x2="305.2383" y2="34.5106" gradientTransform="matrix(1 0 0 -1 0 67.2756)">
				<stop  offset="0" style="stop-color:#3798CD"/>
				<stop  offset="1" style="stop-color:#224C97"/>
			</linearGradient>
			<path style="fill:url(#SVGID_00000157276068514922931750000003527444130635352981_);" d="M187.7,29.35h9.38v6.21h-9.38V48.3
				h11.81v6.21h-18.64v-43.5h18.64v6.21H187.7V29.35z"/>
			
				<linearGradient id="SVGID_00000095326708545086025130000013930283665137240733_" gradientUnits="userSpaceOnUse" x1="155.5777" y1="34.4956" x2="305.2383" y2="34.4956" gradientTransform="matrix(1 0 0 -1 0 67.2756)">
				<stop  offset="0" style="stop-color:#3798CD"/>
				<stop  offset="1" style="stop-color:#224C97"/>
			</linearGradient>
			<path style="fill:url(#SVGID_00000095326708545086025130000013930283665137240733_);" d="M213.25,10.53
				c6.65,0,10.07,3.98,10.07,10.94v1.37h-6.46v-1.8c0-3.11-1.24-4.29-3.42-4.29c-2.17,0-3.42,1.18-3.42,4.29
				c0,3.17,1.37,5.53,5.84,9.45c5.72,5.03,7.52,8.64,7.52,13.61c0,6.96-3.48,10.94-10.19,10.94S203,51.06,203,44.1v-2.67h6.46v3.11
				c0,3.11,1.37,4.23,3.54,4.23s3.54-1.12,3.54-4.23c0-3.17-1.37-5.53-5.84-9.45c-5.72-5.03-7.52-8.64-7.52-13.61
				C203.18,14.51,206.6,10.53,213.25,10.53z"/>
			
				<linearGradient id="SVGID_00000083787505158337457210000003519889190202597000_" gradientUnits="userSpaceOnUse" x1="155.5777" y1="34.2156" x2="305.2383" y2="34.2156" gradientTransform="matrix(1 0 0 -1 0 67.2756)">
				<stop  offset="0" style="stop-color:#3798CD"/>
				<stop  offset="1" style="stop-color:#224C97"/>
			</linearGradient>
			<path style="fill:url(#SVGID_00000083787505158337457210000003519889190202597000_);" d="M234.13,11.03v33.56
				c0,3.11,1.37,4.23,3.54,4.23c2.18,0,3.54-1.12,3.54-4.23V11.03h6.46v33.13c0,6.96-3.48,10.94-10.19,10.94
				s-10.19-3.98-10.19-10.94V11.03H234.13z"/>
			
				<linearGradient id="SVGID_00000093159255922722389860000003898811293236015276_" gradientUnits="userSpaceOnUse" x1="155.5777" y1="34.4956" x2="305.2383" y2="34.4956" gradientTransform="matrix(1 0 0 -1 0 67.2756)">
				<stop  offset="0" style="stop-color:#3798CD"/>
				<stop  offset="1" style="stop-color:#224C97"/>
			</linearGradient>
			<path style="fill:url(#SVGID_00000093159255922722389860000003898811293236015276_);" d="M267.07,41.92h0.12l4.6-30.89h9.51v43.5
				h-6.46V23.33h-0.12l-4.6,31.2h-6.46l-4.97-30.76h-0.12v30.76h-5.97v-43.5h9.51L267.07,41.92z"/>
			
				<linearGradient id="SVGID_00000104669141968543399550000005759158175881422765_" gradientUnits="userSpaceOnUse" x1="155.5777" y1="34.5106" x2="305.2383" y2="34.5106" gradientTransform="matrix(1 0 0 -1 0 67.2756)">
				<stop  offset="0" style="stop-color:#3798CD"/>
				<stop  offset="1" style="stop-color:#224C97"/>
			</linearGradient>
			<path style="fill:url(#SVGID_00000104669141968543399550000005759158175881422765_);" d="M293.43,29.35h9.38v6.21h-9.38V48.3
				h11.81v6.21H286.6v-43.5h18.64v6.21h-11.81L293.43,29.35L293.43,29.35z"/>
		</g>
	</g>
</g>
<g>
	<g>
		<g>
			<text transform="matrix(1 0 0 1 76.2915 54.4945)" class="st6 st7 st8">ACE </text>
		</g>
	</g>
	<g>
		<g>
			<g>
				<g>
					
						<linearGradient id="SVGID_00000042697629982862245260000000070318284956235439_" gradientUnits="userSpaceOnUse" x1="76.9747" y1="34.5356" x2="147.3301" y2="34.5356" gradientTransform="matrix(1 0 0 -1 0 67.2756)">
						<stop  offset="0" style="stop-color:#595757"/>
						<stop  offset="1" style="stop-color:#3E3A39"/>
					</linearGradient>
					<path style="fill:url(#SVGID_00000042697629982862245260000000070318284956235439_);" d="M100.9,54.49H94l-1.18-7.89h-8.39
						l-1.18,7.89h-6.28l6.96-43.5h10.01L100.9,54.49z M85.3,40.7h6.59l-3.23-22h-0.12L85.3,40.7z"/>
					
						<linearGradient id="SVGID_00000037691153336439142090000005376511224470316730_" gradientUnits="userSpaceOnUse" x1="76.9752" y1="34.5356" x2="147.3306" y2="34.5356" gradientTransform="matrix(1 0 0 -1 0 67.2756)">
						<stop  offset="0" style="stop-color:#595757"/>
						<stop  offset="1" style="stop-color:#3E3A39"/>
					</linearGradient>
					<path style="fill:url(#SVGID_00000037691153336439142090000005376511224470316730_);" d="M124.21,38.27v5.78
						c0,6.96-3.48,10.94-10.19,10.94s-10.19-3.98-10.19-10.94V21.43c0-6.96,3.48-10.94,10.19-10.94s10.19,3.98,10.19,10.94v4.23
						h-6.46V21c0-3.11-1.37-4.29-3.54-4.29c-2.18,0-3.54,1.18-3.54,4.29v23.49c0,3.11,1.37,4.23,3.54,4.23s3.54-1.12,3.54-4.23
						v-6.21L124.21,38.27L124.21,38.27z"/>
					
						<linearGradient id="SVGID_00000121250353800154384130000010231512656703435964_" gradientUnits="userSpaceOnUse" x1="76.9752" y1="34.5456" x2="147.3306" y2="34.5456" gradientTransform="matrix(1 0 0 -1 0 67.2756)">
						<stop  offset="0" style="stop-color:#595757"/>
						<stop  offset="1" style="stop-color:#3E3A39"/>
					</linearGradient>
					<path style="fill:url(#SVGID_00000121250353800154384130000010231512656703435964_);" d="M135.52,29.32h9.38v6.21h-9.38v12.74
						h11.81v6.21h-18.64v-43.5h18.64v6.21h-11.81V29.32z"/>
				</g>
			</g>
			<g>
				
					<linearGradient id="SVGID_00000101079267429453157480000000181879812730063503_" gradientUnits="userSpaceOnUse" x1="76.9747" y1="34.5356" x2="147.3301" y2="34.5356" gradientTransform="matrix(1 0 0 -1 0 67.2756)">
					<stop  offset="0" style="stop-color:#595757"/>
					<stop  offset="1" style="stop-color:#3E3A39"/>
				</linearGradient>
				<path style="fill:url(#SVGID_00000101079267429453157480000000181879812730063503_);" d="M100.9,54.49H94l-1.18-7.89h-8.39
					l-1.18,7.89h-6.28l6.96-43.5h10.01L100.9,54.49z M85.3,40.7h6.59l-3.23-22h-0.12L85.3,40.7z"/>
				
					<linearGradient id="SVGID_00000060005820099687586940000006982106462043028121_" gradientUnits="userSpaceOnUse" x1="76.9752" y1="34.5356" x2="147.3306" y2="34.5356" gradientTransform="matrix(1 0 0 -1 0 67.2756)">
					<stop  offset="0" style="stop-color:#595757"/>
					<stop  offset="1" style="stop-color:#3E3A39"/>
				</linearGradient>
				<path style="fill:url(#SVGID_00000060005820099687586940000006982106462043028121_);" d="M124.21,38.27v5.78
					c0,6.96-3.48,10.94-10.19,10.94s-10.19-3.98-10.19-10.94V21.43c0-6.96,3.48-10.94,10.19-10.94s10.19,3.98,10.19,10.94v4.23
					h-6.46V21c0-3.11-1.37-4.29-3.54-4.29c-2.18,0-3.54,1.18-3.54,4.29v23.49c0,3.11,1.37,4.23,3.54,4.23s3.54-1.12,3.54-4.23v-6.21
					L124.21,38.27L124.21,38.27z"/>
				
					<linearGradient id="SVGID_00000003069525668859642420000004843194896859459216_" gradientUnits="userSpaceOnUse" x1="76.9752" y1="34.5456" x2="147.3306" y2="34.5456" gradientTransform="matrix(1 0 0 -1 0 67.2756)">
					<stop  offset="0" style="stop-color:#595757"/>
					<stop  offset="1" style="stop-color:#3E3A39"/>
				</linearGradient>
				<path style="fill:url(#SVGID_00000003069525668859642420000004843194896859459216_);" d="M135.52,29.32h9.38v6.21h-9.38v12.74
					h11.81v6.21h-18.64v-43.5h18.64v6.21h-11.81V29.32z"/>
			</g>
			<g>
				<g>
					
						<linearGradient id="SVGID_00000146460241463172163310000006795631268433700496_" gradientUnits="userSpaceOnUse" x1="76.9747" y1="34.5356" x2="147.3301" y2="34.5356" gradientTransform="matrix(1 0 0 -1 0 67.2756)">
						<stop  offset="0" style="stop-color:#595757"/>
						<stop  offset="1" style="stop-color:#3E3A39"/>
					</linearGradient>
					<path style="fill:url(#SVGID_00000146460241463172163310000006795631268433700496_);" d="M100.9,54.49H94l-1.18-7.89h-8.39
						l-1.18,7.89h-6.28l6.96-43.5h10.01L100.9,54.49z M85.3,40.7h6.59l-3.23-22h-0.12L85.3,40.7z"/>
					
						<linearGradient id="SVGID_00000103252262111952442130000005093850596147392954_" gradientUnits="userSpaceOnUse" x1="76.9752" y1="34.5356" x2="147.3306" y2="34.5356" gradientTransform="matrix(1 0 0 -1 0 67.2756)">
						<stop  offset="0" style="stop-color:#595757"/>
						<stop  offset="1" style="stop-color:#3E3A39"/>
					</linearGradient>
					<path style="fill:url(#SVGID_00000103252262111952442130000005093850596147392954_);" d="M124.21,38.27v5.78
						c0,6.96-3.48,10.94-10.19,10.94s-10.19-3.98-10.19-10.94V21.43c0-6.96,3.48-10.94,10.19-10.94s10.19,3.98,10.19,10.94v4.23
						h-6.46V21c0-3.11-1.37-4.29-3.54-4.29c-2.18,0-3.54,1.18-3.54,4.29v23.49c0,3.11,1.37,4.23,3.54,4.23s3.54-1.12,3.54-4.23
						v-6.21L124.21,38.27L124.21,38.27z"/>
					
						<linearGradient id="SVGID_00000047026528245978165010000016473497014863824273_" gradientUnits="userSpaceOnUse" x1="76.9752" y1="34.5456" x2="147.3306" y2="34.5456" gradientTransform="matrix(1 0 0 -1 0 67.2756)">
						<stop  offset="0" style="stop-color:#595757"/>
						<stop  offset="1" style="stop-color:#3E3A39"/>
					</linearGradient>
					<path style="fill:url(#SVGID_00000047026528245978165010000016473497014863824273_);" d="M135.52,29.32h9.38v6.21h-9.38v12.74
						h11.81v6.21h-18.64v-43.5h18.64v6.21h-11.81V29.32z"/>
				</g>
			</g>
		</g>
	</g>
</g>
<g>
	<polygon class="st18" points="26.08,62.19 45.74,62.19 35.91,45.17 	"/>
	<polygon class="st19" points="0,62.19 20.75,62.19 35.91,35.94 35.91,0 	"/>
	<polygon class="st20" points="35.91,0 35.91,35.94 51.06,62.19 71.81,62.19 	"/>
</g>
</svg>
